<svg width="640" height="101" viewBox="0 0 640 101" fill="none" xmlns="http://www.w3.org/2000/svg">
<path d="M1.65 79V25.9H21.6V79H1.65ZM11.6 19.65C8.63333 19.65 6.03333 18.8833 3.8 17.35C1.6 15.8167 0.5 13.6333 0.5 10.8C0.5 7.93333 1.6 5.75 3.8 4.24999C6.03333 2.71666 8.63333 1.94999 11.6 1.94999C14.5667 1.94999 17.15 2.71666 19.35 4.24999C21.5833 5.75 22.7 7.93333 22.7 10.8C22.7 13.6667 21.5833 15.8667 19.35 17.4C17.15 18.9 14.5667 19.65 11.6 19.65ZM67.1961 79V58.35C67.1961 57.2833 67.1961 56.2167 67.1961 55.15C67.1961 54.0833 67.1961 53.1667 67.1961 52.4C67.1961 50.5667 67.0294 48.8167 66.6961 47.15C66.3961 45.4833 65.6794 44.1167 64.5461 43.05C63.4461 41.9833 61.6794 41.45 59.2461 41.45C57.1461 41.45 55.4461 41.8833 54.1461 42.75C52.8461 43.6167 51.8961 44.8667 51.2961 46.5C50.6961 48.1333 50.3961 50.1 50.3961 52.4L46.4961 48.4C46.4961 43.5333 47.4794 39.35 49.4461 35.85C51.4128 32.3167 54.0961 29.6 57.4961 27.7C60.8961 25.7667 64.7294 24.8 68.9961 24.8C73.5294 24.8 77.1294 25.7333 79.7961 27.6C82.4628 29.4333 84.3794 31.9833 85.5461 35.25C86.7461 38.5167 87.3461 42.25 87.3461 46.45C87.3461 48.2833 87.3461 50.3833 87.3461 52.75C87.3461 55.1167 87.3461 57.6167 87.3461 60.25V79H67.1961ZM30.2461 79V25.9H50.3961V79H30.2461ZM119.198 80.3C114.764 80.3 110.631 79.25 106.798 77.15C102.998 75.0167 99.931 71.8667 97.5977 67.7C95.2643 63.5 94.0977 58.3 94.0977 52.1C94.0977 46.2333 95.2977 41.2667 97.6977 37.2C100.098 33.1333 103.214 30.05 107.048 27.95C110.881 25.85 114.931 24.8 119.198 24.8C123.464 24.8 127.314 25.9167 130.748 28.15C134.181 30.3833 136.914 33.4333 138.948 37.3C140.981 41.1333 141.998 45.5167 141.998 50.45C141.998 50.65 141.998 50.85 141.998 51.05C141.998 51.2167 141.998 51.4 141.998 51.6H134.898C134.898 51.5 134.898 51.4 134.898 51.3C134.898 51.1667 134.898 51.05 134.898 50.95C134.898 48.7167 134.398 46.8833 133.398 45.45C132.398 44.0167 131.131 42.95 129.598 42.25C128.098 41.5167 126.564 41.15 124.998 41.15C122.464 41.15 120.148 42 118.048 43.7C115.948 45.3667 114.898 48.1667 114.898 52.1C114.898 56.0333 115.948 58.8833 118.048 60.65C120.148 62.4167 122.464 63.3 124.998 63.3C126.598 63.3 128.148 62.9333 129.648 62.2C131.181 61.4333 132.431 60.3 133.398 58.8C134.398 57.3 134.898 55.45 134.898 53.25L141.998 53.75C141.998 58.65 140.981 63.1167 138.948 67.15C136.914 71.15 134.181 74.35 130.748 76.75C127.314 79.1167 123.464 80.3 119.198 80.3ZM134.898 79V0.849996H155.098V79H134.898ZM163.564 79V25.9H183.514V79H163.564ZM173.514 19.65C170.547 19.65 167.947 18.8833 165.714 17.35C163.514 15.8167 162.414 13.6333 162.414 10.8C162.414 7.93333 163.514 5.75 165.714 4.24999C167.947 2.71666 170.547 1.94999 173.514 1.94999C176.481 1.94999 179.064 2.71666 181.264 4.24999C183.497 5.75 184.614 7.93333 184.614 10.8C184.614 13.6667 183.497 15.8667 181.264 17.4C179.064 18.9 176.481 19.65 173.514 19.65ZM209.81 80.2C206.01 80.2 202.61 79.6 199.61 78.4C196.61 77.1667 194.243 75.4 192.51 73.1C190.777 70.7667 189.91 67.9333 189.91 64.6C189.91 60.6667 191.027 57.5 193.26 55.1C195.527 52.7 198.41 50.8833 201.91 49.65C205.443 48.4167 209.093 47.6333 212.86 47.3C218.227 46.8 221.843 46.3667 223.71 46C225.577 45.6333 226.51 44.9833 226.51 44.05C226.51 44.0167 226.51 44 226.51 44C226.51 42.7667 225.76 41.7167 224.26 40.85C222.793 39.95 220.827 39.5 218.36 39.5C215.693 39.5 213.71 40 212.41 41C211.11 41.9667 210.46 43.3833 210.46 45.25H190.61C190.61 40.7833 191.86 37.0333 194.36 34C196.86 30.9667 200.21 28.6833 204.41 27.15C208.643 25.5833 213.343 24.8 218.51 24.8C223.41 24.8 227.993 25.5333 232.26 27C236.56 28.4667 240.043 30.7167 242.71 33.75C245.377 36.75 246.71 40.6 246.71 45.3C246.71 46 246.71 46.7 246.71 47.4C246.71 48.1 246.71 48.8 246.71 49.5V65.95C246.71 67.4167 246.743 68.8333 246.81 70.2C246.877 71.5667 247.077 72.8333 247.41 74C247.777 75.2333 248.26 76.3 248.86 77.2C249.46 78.0667 249.943 78.6667 250.31 79H230.61C230.31 78.7 229.877 78.15 229.31 77.35C228.743 76.55 228.277 75.6333 227.91 74.6C227.41 73.1 227.043 71.7 226.81 70.4C226.61 69.0667 226.51 67.45 226.51 65.55L230.91 68.6C230.01 71.0333 228.477 73.1167 226.31 74.85C224.177 76.5833 221.66 77.9167 218.76 78.85C215.893 79.75 212.91 80.2 209.81 80.2ZM215.81 65.9C217.543 65.9 219.243 65.5167 220.91 64.75C222.61 63.9833 224.027 62.7167 225.16 60.95C226.293 59.15 226.86 56.7167 226.86 53.65V51.75L232.01 55.9C229.81 56.6667 227.36 57.3167 224.66 57.85C221.96 58.35 219.377 58.7333 216.91 59C214.61 59.2333 212.893 59.6167 211.76 60.15C210.66 60.65 210.11 61.4667 210.11 62.6C210.11 63.7333 210.61 64.5667 211.61 65.1C212.61 65.6333 214.01 65.9 215.81 65.9ZM256.223 100.85V25.9H276.423V100.85H256.223ZM292.123 80.3C287.889 80.3 284.039 79.1167 280.573 76.75C277.139 74.35 274.406 71.15 272.373 67.15C270.339 63.1167 269.323 58.65 269.323 53.75C269.323 53.5833 269.323 53.4167 269.323 53.25C269.323 53.0833 269.323 52.9167 269.323 52.75L276.423 52.6C276.423 52.7 276.423 52.8167 276.423 52.95C276.423 53.05 276.423 53.15 276.423 53.25C276.423 55.45 276.906 57.3 277.873 58.8C278.873 60.3 280.123 61.4333 281.623 62.2C283.156 62.9333 284.723 63.3 286.323 63.3C288.856 63.3 291.173 62.4167 293.273 60.65C295.373 58.8833 296.423 56.0333 296.423 52.1C296.423 48.1667 295.373 45.3667 293.273 43.7C291.206 42 288.889 41.15 286.323 41.15C284.756 41.15 283.206 41.5167 281.673 42.25C280.173 42.95 278.923 44.0167 277.923 45.45C276.923 46.8833 276.423 48.7167 276.423 50.95L269.323 50.45C269.323 45.5167 270.339 41.1333 272.373 37.3C274.406 33.4333 277.139 30.3833 280.573 28.15C284.039 25.9167 287.889 24.8 292.123 24.8C296.423 24.8 300.473 25.85 304.273 27.95C308.106 30.05 311.223 33.1333 313.623 37.2C316.023 41.2667 317.223 46.2333 317.223 52.1C317.223 58.3 316.056 63.5 313.723 67.7C311.389 71.8667 308.323 75.0167 304.523 77.15C300.723 79.25 296.589 80.3 292.123 80.3ZM324.484 79V25.9H344.684V45.55L341.234 42.85C341.734 40.0167 342.518 37.4833 343.584 35.25C344.651 33.0167 345.984 31.1333 347.584 29.6C349.218 28.0333 351.084 26.85 353.184 26.05C355.318 25.2167 357.684 24.8 360.284 24.8C362.451 24.8 364.084 24.95 365.184 25.25C366.318 25.5167 367.018 25.7333 367.284 25.9L364.534 43.5C364.234 43.3333 363.568 43.0833 362.534 42.75C361.501 42.3833 360.251 42.2 358.784 42.2C356.184 42.2 353.984 42.6167 352.184 43.45C350.384 44.25 348.934 45.35 347.834 46.75C346.734 48.1167 345.934 49.6667 345.434 51.4C344.934 53.1 344.684 54.8333 344.684 56.6V79H324.484ZM381.413 57.95V45.95H412.713L411.213 48.55C411.213 48.2833 411.213 48 411.213 47.7C411.213 47.3667 411.213 47.0833 411.213 46.85C411.213 45.7167 410.879 44.55 410.213 43.35C409.579 42.1167 408.529 41.0833 407.063 40.25C405.629 39.4167 403.696 39 401.263 39C398.896 39 396.913 39.5 395.313 40.5C393.713 41.5 392.513 42.9833 391.713 44.95C390.913 46.8833 390.513 49.25 390.513 52.05C390.513 54.9833 390.896 57.4833 391.663 59.55C392.429 61.6167 393.646 63.2 395.313 64.3C396.979 65.3667 399.163 65.9 401.863 65.9C403.463 65.9 404.829 65.7833 405.963 65.55C407.096 65.3167 407.996 65.0167 408.663 64.65C409.363 64.2833 409.879 63.8833 410.213 63.45C410.579 63.0167 410.796 62.6 410.863 62.2H430.763C430.529 64.5333 429.679 66.7833 428.213 68.95C426.779 71.1167 424.796 73.0667 422.262 74.8C419.729 76.5 416.679 77.85 413.113 78.85C409.546 79.8167 405.513 80.3 401.013 80.3C394.779 80.3 389.379 79.1333 384.813 76.8C380.246 74.4333 376.729 71.1667 374.263 67C371.796 62.8 370.563 57.9833 370.563 52.55C370.563 46.9833 371.829 42.1167 374.363 37.95C376.896 33.7833 380.446 30.55 385.013 28.25C389.613 25.95 394.946 24.8 401.013 24.8C407.279 24.8 412.679 25.9833 417.213 28.35C421.779 30.6833 425.296 34.0167 427.763 38.35C430.229 42.65 431.463 47.7667 431.463 53.7C431.463 54.7 431.446 55.55 431.413 56.25C431.379 56.95 431.329 57.5167 431.263 57.95H381.413ZM461.092 80.3C456.659 80.3 452.526 79.25 448.692 77.15C444.892 75.0167 441.826 71.8667 439.492 67.7C437.159 63.5 435.992 58.3 435.992 52.1C435.992 46.2333 437.192 41.2667 439.592 37.2C441.992 33.1333 445.109 30.05 448.942 27.95C452.776 25.85 456.826 24.8 461.092 24.8C465.359 24.8 469.209 25.9167 472.642 28.15C476.076 30.3833 478.809 33.4333 480.842 37.3C482.876 41.1333 483.892 45.5167 483.892 50.45C483.892 50.65 483.892 50.85 483.892 51.05C483.892 51.2167 483.892 51.4 483.892 51.6H476.792C476.792 51.5 476.792 51.4 476.792 51.3C476.792 51.1667 476.792 51.05 476.792 50.95C476.792 48.7167 476.292 46.8833 475.292 45.45C474.292 44.0167 473.026 42.95 471.492 42.25C469.992 41.5167 468.459 41.15 466.892 41.15C464.359 41.15 462.042 42 459.942 43.7C457.842 45.3667 456.792 48.1667 456.792 52.1C456.792 56.0333 457.842 58.8833 459.942 60.65C462.042 62.4167 464.359 63.3 466.892 63.3C468.492 63.3 470.042 62.9333 471.542 62.2C473.076 61.4333 474.326 60.3 475.292 58.8C476.292 57.3 476.792 55.45 476.792 53.25L483.892 53.75C483.892 58.65 482.876 63.1167 480.842 67.15C478.809 71.15 476.076 74.35 472.642 76.75C469.209 79.1167 465.359 80.3 461.092 80.3ZM476.792 79V0.849996H496.992V79H476.792ZM505.459 79V25.9H525.409V79H505.459ZM515.409 19.65C512.442 19.65 509.842 18.8833 507.609 17.35C505.409 15.8167 504.309 13.6333 504.309 10.8C504.309 7.93333 505.409 5.75 507.609 4.24999C509.842 2.71666 512.442 1.94999 515.409 1.94999C518.375 1.94999 520.959 2.71666 523.159 4.24999C525.392 5.75 526.509 7.93333 526.509 10.8C526.509 13.6667 525.392 15.8667 523.159 17.4C520.959 18.9 518.375 19.65 515.409 19.65ZM561.855 80.3C555.488 80.3 550.021 79.0833 545.455 76.65C540.888 74.2167 537.388 70.8833 534.955 66.65C532.521 62.4167 531.305 57.6 531.305 52.2C531.305 46.7667 532.521 42 534.955 37.9C537.388 33.8 540.888 30.6 545.455 28.3C550.021 25.9667 555.488 24.8 561.855 24.8C566.555 24.8 570.688 25.4667 574.255 26.8C577.821 28.1333 580.788 29.9 583.155 32.1C585.555 34.2667 587.355 36.65 588.555 39.25C589.788 41.85 590.405 44.4333 590.405 47C590.405 47.0667 590.405 47.15 590.405 47.25C590.405 47.3167 590.405 47.3833 590.405 47.45H570.455C570.455 47.25 570.438 47.0667 570.405 46.9C570.405 46.7333 570.371 46.5667 570.305 46.4C570.038 45.5333 569.621 44.6333 569.055 43.7C568.488 42.7667 567.621 41.9833 566.455 41.35C565.321 40.6833 563.721 40.35 561.655 40.35C559.621 40.35 557.855 40.8167 556.355 41.75C554.888 42.6833 553.755 44.0333 552.955 45.8C552.155 47.5667 551.755 49.7 551.755 52.2C551.755 54.6333 552.155 56.8 552.955 58.7C553.755 60.6 554.888 62.0833 556.355 63.15C557.855 64.2167 559.621 64.75 561.655 64.75C563.655 64.75 565.255 64.45 566.455 63.85C567.688 63.25 568.605 62.4333 569.205 61.4C569.838 60.3333 570.238 59.1333 570.405 57.8H590.405C590.405 60.3333 589.788 62.9333 588.555 65.6C587.355 68.2333 585.555 70.6667 583.155 72.9C580.788 75.1 577.821 76.8833 574.255 78.25C570.688 79.6167 566.555 80.3 561.855 80.3ZM627.129 80.3C624.829 80.3 622.396 80.1167 619.829 79.75C617.296 79.4167 614.912 78.7 612.679 77.6C610.446 76.5 608.629 74.85 607.229 72.65C605.829 70.4167 605.129 67.4333 605.129 63.7C605.129 62.9333 605.129 62.1667 605.129 61.4C605.129 60.6333 605.129 59.8833 605.129 59.15V40.9H593.279V25.9H593.529C596.129 25.9 598.196 25.7833 599.729 25.55C601.296 25.3167 602.462 24.75 603.229 23.85C603.996 22.95 604.496 21.5333 604.729 19.6C604.996 17.6667 605.129 15 605.129 11.6V8.5H625.329V25.9H639.979V40.9H625.329V55.55C625.329 56.05 625.329 56.55 625.329 57.05C625.329 57.5167 625.329 58 625.329 58.5C625.329 60.4333 625.562 62.0667 626.029 63.4C626.496 64.7333 627.746 65.4 629.779 65.4C630.979 65.4 632.112 65.2833 633.179 65.05C634.246 64.8167 635.046 64.5833 635.579 64.35V78.9C634.812 79.2333 633.696 79.55 632.229 79.85C630.796 80.15 629.096 80.3 627.129 80.3Z" fill="#3B17A2"/>
</svg>
