<svg xmlns="http://www.w3.org/2000/svg" version="1.1" xmlns:xlink="http://www.w3.org/1999/xlink" xmlns:svgjs="http://svgjs.com/svgjs" width="1920" height="1080" preserveAspectRatio="none" viewBox="0 0 1920 1080"><g mask="url(&quot;#SvgjsMask1310&quot;)" fill="none"><rect width="1920" height="1080" x="0" y="0" fill="rgba(255, 255, 255, 1)"></rect><path d="M0 783.26L10 763.84L20 739.86L30 633.82L40 698.22L50 726.4L60 699.26L70 779.11L80 812.73L90 773.74L100 810.29L110 682.59L120 679.6L130 693.15L140 758.48L150 684.16L160 675.86L170 726.85L180 712.07L190 767.36L200 833.58L210 790.75L220 704.29L230 604.94L240 573.8L250 507.49L260 525.09L270 493.86L280 598.58L290 707.95L300 646.78L310 586.22L320 632.55L330 499.44L340 538.05L350 579.06L360 679.62L370 608.86L380 577.46L390 639.82L400 705.78L410 652.68L420 625.49L430 512.59L440 493.37L450 462.65L460 534.42L470 592.15L480 461.26L490 434.21L500 507.63L510 530.84L520 479.61L530 475.75L540 419.56L550 494.68L560 432.54L570 534.99L580 437.55L590 373.66L600 506.07L610 420.24L620 451.93L630 426.73L640 472.16L650 453.58L660 411.79L670 449.24L680 513.33L690 417.96L700 341.54L710 445.89L720 483.6L730 571.62L740 578.71L750 585.73L760 585.17L770 619.78L780 722.54L790 666.48L800 667.86L810 606.75L820 543.64L830 559.98L840 531.71L850 468.5L860 540.35L870 446.8L880 489.16L890 539.5L900 406.57L910 518.21L920 613.49L930 583.09L940 693.99L950 808.1L960 733.55L970 824.53L980 911.5L990 788.25L1000 793.54L1010 718.59L1020 605.2L1030 683.9L1040 642.73L1050 598.95L1060 584.3L1070 618.88L1080 516.36L1090 603.71L1100 620.93L1110 550.93L1120 432.98L1130 366.17L1140 455.23L1150 589.06L1160 691.6L1170 683.35L1180 656.34L1190 779.92L1200 829.6L1210 810.84L1220 717.7L1230 585.29L1240 545.82L1250 565.84L1260 538.81L1270 520.49L1280 544.29L1290 564.5L1300 687.29L1310 585.81L1320 476.27L1330 583.33L1340 494.31L1350 468.89L1360 368.6L1370 397.06L1380 512.72L1390 586.57L1400 659.52L1410 612.19L1420 648.84L1430 555.65L1440 523.25L1450 467.2L1460 598.83L1470 670.49L1480 699.27L1490 620.13L1500 601.1L1510 580.39L1520 498.85L1530 426.34L1540 482.25L1550 436.51L1560 545.56L1570 521.48L1580 498.84L1590 384.34L1600 316.85L1610 292.56L1620 280.38L1630 256.11L1640 388.41L1650 412.12L1660 438.24L1670 550.68L1680 423.36L1690 484.84L1700 468.46L1710 479.42L1720 482.09L1730 383.41L1740 345.1L1750 270.5L1760 135.99L1770 80.9L1780 120L1790 76.41L1800 207.69L1810 117.4L1820 90.82L1830 112.31L1840 116.46L1850 63.88L1860 137.51L1870 56.28L1880 65.61L1890 54.21L1900 14.56L1910 53.46L1920 116.12" stroke="rgba(200, 233, 209, 1)" stroke-width="2"></path><path d="M0 783.26L10 763.84L20 739.86L30 633.82L40 698.22L50 726.4L60 699.26L70 779.11L80 812.73L90 773.74L100 810.29L110 682.59L120 679.6L130 693.15L140 758.48L150 684.16L160 675.86L170 726.85L180 712.07L190 767.36L200 833.58L210 790.75L220 704.29L230 604.94L240 573.8L250 507.49L260 525.09L270 493.86L280 598.58L290 707.95L300 646.78L310 586.22L320 632.55L330 499.44L340 538.05L350 579.06L360 679.62L370 608.86L380 577.46L390 639.82L400 705.78L410 652.68L420 625.49L430 512.59L440 493.37L450 462.65L460 534.42L470 592.15L480 461.26L490 434.21L500 507.63L510 530.84L520 479.61L530 475.75L540 419.56L550 494.68L560 432.54L570 534.99L580 437.55L590 373.66L600 506.07L610 420.24L620 451.93L630 426.73L640 472.16L650 453.58L660 411.79L670 449.24L680 513.33L690 417.96L700 341.54L710 445.89L720 483.6L730 571.62L740 578.71L750 585.73L760 585.17L770 619.78L780 722.54L790 666.48L800 667.86L810 606.75L820 543.64L830 559.98L840 531.71L850 468.5L860 540.35L870 446.8L880 489.16L890 539.5L900 406.57L910 518.21L920 613.49L930 583.09L940 693.99L950 808.1L960 733.55L970 824.53L980 911.5L990 788.25L1000 793.54L1010 718.59L1020 605.2L1030 683.9L1040 642.73L1050 598.95L1060 584.3L1070 618.88L1080 516.36L1090 603.71L1100 620.93L1110 550.93L1120 432.98L1130 366.17L1140 455.23L1150 589.06L1160 691.6L1170 683.35L1180 656.34L1190 779.92L1200 829.6L1210 810.84L1220 717.7L1230 585.29L1240 545.82L1250 565.84L1260 538.81L1270 520.49L1280 544.29L1290 564.5L1300 687.29L1310 585.81L1320 476.27L1330 583.33L1340 494.31L1350 468.89L1360 368.6L1370 397.06L1380 512.72L1390 586.57L1400 659.52L1410 612.19L1420 648.84L1430 555.65L1440 523.25L1450 467.2L1460 598.83L1470 670.49L1480 699.27L1490 620.13L1500 601.1L1510 580.39L1520 498.85L1530 426.34L1540 482.25L1550 436.51L1560 545.56L1570 521.48L1580 498.84L1590 384.34L1600 316.85L1610 292.56L1620 280.38L1630 256.11L1640 388.41L1650 412.12L1660 438.24L1670 550.68L1680 423.36L1690 484.84L1700 468.46L1710 479.42L1720 482.09L1730 383.41L1740 345.1L1750 270.5L1760 135.99L1770 80.9L1780 120L1790 76.41L1800 207.69L1810 117.4L1820 90.82L1830 112.31L1840 116.46L1850 63.88L1860 137.51L1870 56.28L1880 65.61L1890 54.21L1900 14.56L1910 53.46L1920 116.12L1920 1080L0 1080z" fill="url(#SvgjsLinearGradient1311)"></path></g><defs><mask id="SvgjsMask1310"><rect width="1920" height="1080" fill="#ffffff"></rect></mask><linearGradient x1="50%" y1="0%" x2="50%" y2="100%" id="SvgjsLinearGradient1311"><stop stop-opacity="0.65" stop-color="rgba(200, 233, 209, 1)" offset="0"></stop><stop stop-opacity="0" stop-color="#ffffff" offset="0.8"></stop></linearGradient></defs></svg>